<svg xmlns="http://www.w3.org/2000/svg" width="165" height="40" viewBox="0 0 165 40"><path fill="#A6A6A6" d="M160.271 39.989H4.729A4.73 4.73 0 0 1 0 35.268V4.727A4.733 4.733 0 0 1 4.729 0h155.542A4.735 4.735 0 0 1 165 4.727v30.541c.001 2.604-2.124 4.721-4.729 4.721z"/><path d="M164.105 35.268a3.83 3.83 0 0 1-3.834 3.83H4.729a3.835 3.835 0 0 1-3.839-3.83V4.725A3.839 3.839 0 0 1 4.729.891h155.542a3.833 3.833 0 0 1 3.834 3.834v30.543z"/><g fill="#FFF"><path d="M30.497 19.763c-.03-3.223 2.695-4.792 2.819-4.864-1.543-2.204-3.935-2.506-4.774-2.529-2.01-.206-3.958 1.178-4.981 1.178-1.043 0-2.62-1.157-4.317-1.122-2.185.033-4.23 1.271-5.352 3.195-2.314 3.923-.588 9.69 1.628 12.859 1.109 1.555 2.405 3.287 4.101 3.226 1.66-.066 2.279-1.035 4.283-1.035 1.984 0 2.566 1.035 4.296.996 1.78-.027 2.903-1.559 3.973-3.127 1.282-1.78 1.796-3.532 1.817-3.623-.042-.015-3.458-1.29-3.493-5.154zM27.229 10.285c.892-1.094 1.502-2.58 1.333-4.089-1.292.055-2.908.874-3.838 1.944-.823.941-1.558 2.486-1.368 3.938 1.451.106 2.941-.717 3.873-1.793z"/></g><g fill="#FFF"><path d="M55.653 31.496h-1.96l-.262-5.264c-.125-2.377-.18-4.145-.168-5.301h-.056a71.353 71.353 0 0 1-1.475 4.76l-1.96 5.693h-1.531l-1.792-5.6a54.979 54.979 0 0 1-1.307-4.854h-.038c-.062 1.891-.137 3.69-.224 5.395l-.299 5.17h-1.885l.84-12.582h2.595l1.811 5.451c.448 1.344.84 2.789 1.176 4.332h.056a48.948 48.948 0 0 1 1.269-4.332l1.886-5.451h2.595l.729 12.583zM64.483 31.496h-1.811l-.149-1.045h-.056c-.623.834-1.506 1.25-2.651 1.25-.859 0-1.549-.273-2.072-.82-.473-.498-.709-1.113-.709-1.848 0-1.107.463-1.955 1.391-2.539.927-.586 2.23-.871 3.911-.859v-.168c0-1.195-.627-1.791-1.881-1.791-.895 0-1.683.223-2.366.672l-.411-1.326c.845-.523 1.883-.783 3.113-.783 2.373 0 3.56 1.25 3.56 3.752v3.342c0 .907.044 1.628.131 2.163zm-2.091-3.117v-1.4c-2.228-.037-3.341.572-3.341 1.83 0 .473.129.828.39 1.064.26.236.587.354.983.354.446 0 .857-.139 1.235-.42a1.72 1.72 0 0 0 .696-1.072c.024-.1.037-.219.037-.356zM72.977 22.666l-.392 1.531c-.51-.248-1.095-.373-1.755-.373-.884 0-1.583.295-2.1.887s-.774 1.342-.774 2.25c0 .957.271 1.717.812 2.277.541.559 1.229.84 2.062.84.622 0 1.232-.125 1.83-.373l.28 1.512c-.66.311-1.493.467-2.501.467-1.381 0-2.482-.42-3.304-1.26-.822-.84-1.232-1.963-1.232-3.369s.442-2.561 1.326-3.463c.883-.902 2.072-1.354 3.565-1.354.845 0 1.573.143 2.183.428zM87.872 31.496h-2.146l-1.177-3.695h-4.087l-1.12 3.695H77.25l4.051-12.582h2.501l4.07 12.582zm-3.677-5.244l-1.064-3.287c-.112-.336-.324-1.125-.635-2.37h-.038a101.05 101.05 0 0 1-.597 2.37l-1.045 3.287h3.379zM98.287 26.848c0 1.545-.416 2.764-1.25 3.66-.746.797-1.674 1.193-2.781 1.193-1.195 0-2.053-.428-2.576-1.287h-.037v4.779h-2.016V25.41c0-.971-.025-1.965-.076-2.986h1.773l.113 1.438h.037c.672-1.082 1.691-1.623 3.061-1.623 1.07 0 1.963.422 2.68 1.27.715.845 1.072 1.958 1.072 3.339zm-2.053.076c0-.885-.199-1.611-.598-2.186-.436-.596-1.02-.895-1.754-.895-.498 0-.949.164-1.354.494s-.67.762-.793 1.297c-.062.25-.094.455-.094.617v1.512c0 .66.201 1.217.607 1.67.404.455.93.682 1.576.682.76 0 1.35-.293 1.773-.877.426-.586.637-1.357.637-2.314zM108.723 26.848c0 1.545-.418 2.764-1.25 3.66-.748.797-1.674 1.193-2.783 1.193-1.193 0-2.053-.428-2.574-1.287h-.039v4.779h-2.016V25.41c0-.971-.025-1.965-.074-2.986h1.773l.111 1.438h.037c.672-1.082 1.693-1.623 3.062-1.623 1.07 0 1.963.422 2.678 1.27.717.845 1.075 1.958 1.075 3.339zm-2.053.076c0-.885-.199-1.611-.598-2.186-.436-.596-1.021-.895-1.756-.895-.498 0-.949.164-1.354.494s-.668.762-.793 1.297c-.062.25-.094.455-.094.617v1.512c0 .66.203 1.217.607 1.67.404.455.93.682 1.578.682.758 0 1.35-.293 1.773-.877.424-.586.637-1.357.637-2.314zM120.389 27.969c0 1.07-.373 1.941-1.117 2.613-.82.734-1.963 1.102-3.428 1.102-1.354 0-2.439-.262-3.26-.785l.467-1.68a5.517 5.517 0 0 0 2.912.803c.76 0 1.352-.17 1.775-.514s.635-.801.635-1.375c0-.51-.174-.941-.523-1.289-.348-.35-.926-.674-1.736-.973-2.201-.822-3.303-2.025-3.303-3.609 0-1.035.385-1.882 1.156-2.542.771-.661 1.799-.991 3.08-.991 1.146 0 2.098.199 2.857.598l-.504 1.643c-.711-.386-1.514-.579-2.408-.579-.711 0-1.264.175-1.662.523-.336.31-.504.691-.504 1.138 0 .498.193.908.578 1.232.336.299.945.623 1.83.971 1.082.436 1.879.945 2.389 1.531.512.583.766 1.312.766 2.183zM127.053 23.936h-2.223v4.406c0 1.119.393 1.68 1.178 1.68.359 0 .658-.031.895-.094l.057 1.531c-.398.15-.922.225-1.568.225-.797 0-1.418-.242-1.867-.729-.447-.484-.672-1.301-.672-2.445v-4.574h-1.324v-1.512h1.324v-1.661l1.979-.598v2.258h2.223v1.513zM137.076 26.885c0 1.395-.398 2.539-1.193 3.436-.834.922-1.941 1.381-3.324 1.381-1.332 0-2.393-.441-3.182-1.324-.791-.885-1.186-1.998-1.186-3.342 0-1.406.406-2.557 1.223-3.453.814-.896 1.914-1.344 3.295-1.344 1.332 0 2.4.441 3.211 1.324.771.859 1.156 1.966 1.156 3.322zm-2.09.066c0-.836-.182-1.555-.541-2.152-.424-.725-1.027-1.086-1.811-1.086-.811 0-1.426.361-1.85 1.086-.361.598-.541 1.328-.541 2.189 0 .836.18 1.555.541 2.152.436.725 1.047 1.086 1.83 1.086.771 0 1.375-.367 1.811-1.104.374-.61.561-1.335.561-2.171zM143.629 24.197a3.468 3.468 0 0 0-.635-.055c-.709 0-1.258.268-1.643.801-.336.475-.504 1.072-.504 1.793v4.76h-2.016l.018-6.215c0-1.047-.025-1.998-.074-2.857h1.754l.076 1.736h.055a3.113 3.113 0 0 1 1.008-1.438 2.45 2.45 0 0 1 1.457-.484c.188 0 .355.012.504.037v1.922zM152.645 26.531c0 .361-.025.666-.074.914h-6.049c.025.896.318 1.58.879 2.055.51.422 1.168.635 1.979.635.895 0 1.711-.145 2.445-.43l.316 1.4c-.857.373-1.873.559-3.043.559-1.406 0-2.51-.412-3.312-1.24s-1.205-1.939-1.205-3.332c0-1.369.373-2.508 1.121-3.416.783-.971 1.842-1.457 3.174-1.457 1.307 0 2.295.486 2.967 1.457.534.771.802 1.722.802 2.855zm-1.922-.523c.012-.598-.119-1.113-.393-1.549-.348-.561-.883-.84-1.605-.84-.66 0-1.195.273-1.605.82-.336.438-.535.959-.598 1.568h4.201z"/></g><g fill="#FFF"><path d="M48.96 10.009c0 1.177-.353 2.063-1.058 2.658-.653.549-1.581.824-2.783.824-.596 0-1.106-.026-1.533-.078V6.982c.557-.09 1.157-.136 1.805-.136 1.145 0 2.008.249 2.59.747.652.563.979 1.368.979 2.416zm-1.106.029c0-.763-.202-1.348-.606-1.756-.404-.407-.994-.611-1.771-.611-.33 0-.611.022-.844.068v4.889c.129.02.365.029.708.029.802 0 1.421-.223 1.857-.669s.656-1.096.656-1.95zM54.818 11.037c0 .725-.207 1.319-.621 1.785-.434.479-1.009.718-1.727.718-.692 0-1.243-.229-1.654-.689-.41-.459-.615-1.038-.615-1.736 0-.73.211-1.329.635-1.794s.994-.698 1.712-.698c.692 0 1.248.229 1.669.688.4.446.601 1.022.601 1.726zm-1.087.034c0-.435-.094-.808-.281-1.119-.22-.376-.533-.564-.94-.564-.421 0-.741.188-.961.564-.188.311-.281.69-.281 1.138 0 .435.094.808.281 1.119.227.376.543.564.951.564.4 0 .714-.191.94-.574.195-.317.291-.693.291-1.128zM62.675 8.719L61.2 13.433h-.96l-.611-2.047a15.32 15.32 0 0 1-.379-1.523h-.019a11.15 11.15 0 0 1-.379 1.523l-.649 2.047h-.971l-1.387-4.714h1.077l.533 2.241c.129.53.235 1.035.32 1.513h.019c.078-.394.207-.896.389-1.503l.669-2.25h.854l.641 2.202c.155.537.281 1.054.378 1.552h.029c.071-.485.178-1.002.32-1.552l.572-2.202h1.029zM68.107 13.433H67.06v-2.7c0-.832-.316-1.248-.95-1.248a.946.946 0 0 0-.757.343 1.217 1.217 0 0 0-.291.808v2.796h-1.048v-3.366c0-.414-.013-.863-.038-1.349h.921l.049.737h.029c.122-.229.304-.418.543-.569.284-.176.602-.265.95-.265.44 0 .806.142 1.097.427.362.349.543.87.543 1.562v2.824zM70.998 13.433H69.95V6.556h1.048v6.877zM77.167 11.037c0 .725-.207 1.319-.621 1.785-.434.479-1.009.718-1.727.718-.692 0-1.243-.229-1.654-.689-.41-.459-.615-1.038-.615-1.736 0-.73.211-1.329.635-1.794s.994-.698 1.712-.698c.692 0 1.248.229 1.669.688.4.446.601 1.022.601 1.726zm-1.087.034c0-.435-.094-.808-.281-1.119-.22-.376-.533-.564-.94-.564-.421 0-.741.188-.961.564-.188.311-.281.69-.281 1.138 0 .435.094.808.281 1.119.227.376.543.564.951.564.4 0 .714-.191.94-.574.194-.317.291-.693.291-1.128zM82.239 13.433h-.941l-.077-.543h-.029c-.323.433-.782.65-1.377.65-.446 0-.806-.143-1.077-.427a1.338 1.338 0 0 1-.368-.96c0-.576.24-1.015.723-1.319.481-.304 1.159-.453 2.032-.446V10.3c0-.621-.326-.931-.978-.931-.465 0-.875.117-1.229.349l-.213-.688c.438-.271.979-.407 1.617-.407 1.233 0 1.85.65 1.85 1.95v1.736c-.001.471.022.846.067 1.124zm-1.087-1.62v-.727c-1.157-.02-1.735.297-1.735.95 0 .246.067.43.202.553a.73.73 0 0 0 .511.184c.231 0 .445-.073.642-.218a.889.889 0 0 0 .38-.742zM88.195 13.433h-.931l-.049-.757h-.029c-.297.576-.802.864-1.513.864-.569 0-1.041-.223-1.416-.669s-.562-1.025-.562-1.736c0-.763.203-1.381.61-1.853.395-.44.88-.66 1.455-.66.634 0 1.077.213 1.329.64h.02V6.556h1.048v5.607c0 .459.013.882.038 1.27zm-1.086-1.988v-.786a1.189 1.189 0 0 0-.409-.965 1.028 1.028 0 0 0-.701-.257c-.39 0-.696.155-.921.466-.224.311-.336.708-.336 1.193 0 .466.107.844.322 1.135.227.31.532.465.915.465.344 0 .62-.129.828-.388.202-.239.302-.527.302-.863zM97.158 11.037c0 .725-.207 1.319-.621 1.785-.434.479-1.009.718-1.727.718-.692 0-1.243-.229-1.654-.689-.41-.459-.615-1.038-.615-1.736 0-.73.211-1.329.635-1.794s.994-.698 1.712-.698c.692 0 1.248.229 1.669.688.4.446.601 1.022.601 1.726zm-1.087.034c0-.435-.094-.808-.281-1.119-.22-.376-.533-.564-.94-.564-.421 0-.741.188-.961.564-.188.311-.281.69-.281 1.138 0 .435.094.808.281 1.119.227.376.543.564.951.564.4 0 .714-.191.94-.574.195-.317.291-.693.291-1.128zM102.793 13.433h-1.048v-2.7c0-.832-.316-1.248-.95-1.248a.946.946 0 0 0-.757.343 1.217 1.217 0 0 0-.291.808v2.796h-1.048v-3.366c0-.414-.013-.863-.038-1.349h.921l.049.737h.029c.122-.229.304-.418.543-.569.284-.176.602-.265.95-.265.44 0 .806.142 1.097.427.362.349.543.87.543 1.562v2.824zM109.846 9.504h-1.154v2.29c0 .582.204.873.611.873.188 0 .343-.016.466-.049l.028.795c-.207.078-.479.117-.814.117-.414 0-.737-.126-.97-.378-.233-.252-.35-.676-.35-1.271V9.504h-.688v-.785h.688v-.864l1.028-.31v1.173h1.154v.786zM115.442 13.433h-1.048v-2.68c0-.845-.316-1.268-.95-1.268-.485 0-.818.245-.999.735a1.283 1.283 0 0 0-.049.377v2.835h-1.048V6.556h1.048v2.841h.02c.33-.517.802-.775 1.416-.775.434 0 .792.142 1.077.427.355.355.533.883.533 1.581v2.803zM120.875 10.853c0 .188-.014.346-.039.475h-3.143c.013.466.164.821.455 1.067.266.22.608.33 1.028.33.466 0 .89-.074 1.271-.223l.164.728c-.446.194-.973.291-1.581.291-.73 0-1.305-.215-1.722-.645s-.625-1.007-.625-1.731c0-.711.193-1.303.582-1.775.407-.504.956-.756 1.648-.756.679 0 1.193.252 1.542.756.28.4.42.895.42 1.483zm-1-.271a1.427 1.427 0 0 0-.203-.805c-.182-.291-.459-.437-.834-.437a.997.997 0 0 0-.835.427 1.577 1.577 0 0 0-.31.815h2.182z"/></g></svg>